<?xml version="1.0" standalone="no"?>
<!DOCTYPE svg PUBLIC "-//W3C//DTD SVG 20010904//EN"
 "http://www.w3.org/TR/2001/REC-SVG-20010904/DTD/svg10.dtd">
<svg version="1.0" xmlns="http://www.w3.org/2000/svg"
 width="690.000000pt" height="690.000000pt" viewBox="0 0 690.000000 690.000000"
 preserveAspectRatio="xMidYMid meet">

<g transform="translate(0.000000,690.000000) scale(0.100000,-0.100000)"
fill="#000000" stroke="none">
<path d="M3560 5191 c0 -25 16 -30 129 -41 228 -22 321 -38 372 -66 l50 -28
55 19 c30 10 56 16 59 13 3 -3 1 -18 -5 -33 -13 -35 1 -55 28 -39 21 14 54 98
46 119 -12 29 -154 6 -154 -25 0 -6 -21 0 -47 13 -78 39 -108 45 -320 67 -111
11 -205 20 -208 20 -3 0 -5 -9 -5 -19z"/>
<path d="M3270 5171 c-196 -74 -249 -106 -224 -131 11 -11 65 7 171 57 18 8
65 25 105 38 57 18 74 28 76 44 5 30 -34 27 -128 -8z"/>
<path d="M4270 4997 c0 -31 27 -38 136 -35 101 3 109 4 109 23 0 19 -8 20
-122 23 -101 2 -123 0 -123 -11z"/>
<path d="M2890 4878 c-27 -43 -46 -90 -60 -149 -30 -130 -28 -158 20 -215 l41
-49 -48 -5 c-40 -4 -48 -8 -48 -25 0 -18 8 -20 69 -23 l68 -3 -7 -127 c-12
-210 -8 -506 10 -640 11 -85 30 -167 61 -259 47 -144 49 -167 37 -333 l-6 -93
-96 -45 c-53 -24 -118 -59 -146 -76 -119 -76 -135 -86 -144 -86 -14 0 -114
-118 -156 -185 -21 -33 -56 -82 -78 -108 -38 -46 -39 -49 -23 -65 17 -16 20
-14 57 28 22 25 64 81 93 125 57 86 139 173 184 196 15 7 59 31 97 54 39 22
108 58 154 80 l83 40 27 -35 c57 -76 103 -117 188 -169 113 -70 157 -112 196
-186 30 -57 32 -66 35 -198 2 -76 2 -143 -1 -150 -4 -10 -35 -7 -143 14 -77
16 -173 33 -214 38 -104 15 -591 -1 -730 -24 -58 -9 -120 -19 -137 -21 -25 -4
-33 -10 -33 -24 0 -17 7 -20 53 -20 28 1 86 7 127 15 85 17 608 39 685 30 48
-6 345 -62 375 -70 12 -4 15 -23 15 -92 0 -98 15 -135 80 -191 40 -36 290
-160 390 -196 39 -13 135 -50 215 -81 100 -39 164 -59 208 -62 63 -6 71 -10
51 -30 -14 -14 2 -47 40 -84 53 -52 168 -185 195 -226 28 -42 125 -123 147
-123 7 0 20 6 28 14 9 7 93 53 186 101 94 48 172 89 174 91 6 5 -67 109 -111
157 -21 23 -38 45 -38 49 0 5 -15 25 -33 45 -18 21 -44 55 -57 76 -14 22 -56
61 -93 87 l-68 49 -67 -46 c-41 -28 -68 -41 -70 -33 -2 6 10 42 27 79 40 87
71 209 71 280 0 31 -11 99 -24 151 -14 54 -21 99 -16 104 7 7 253 21 565 31
82 3 90 5 93 23 3 18 -4 21 -50 27 -29 4 -100 2 -157 -4 -57 -6 -162 -11 -235
-12 -72 0 -155 -4 -185 -8 l-53 -8 -18 42 c-10 23 -52 82 -93 131 -122 146
-150 220 -127 339 10 53 16 65 29 61 69 -21 185 -46 208 -46 33 0 114 -50 155
-95 15 -16 58 -76 95 -132 67 -102 103 -130 103 -82 0 38 -117 203 -188 266
-86 76 -91 79 -209 102 -149 30 -158 34 -156 62 2 13 21 59 43 102 52 100 68
203 51 326 -12 93 -31 141 -90 231 -22 35 -48 84 -57 109 -8 25 -26 73 -38
106 l-23 61 38 54 c37 54 59 109 59 148 0 11 14 36 31 54 79 85 111 158 70
158 -12 0 -36 -25 -67 -70 l-48 -70 -50 48 c-91 88 -156 121 -170 87 -4 -11 9
-26 42 -48 60 -41 142 -120 142 -137 0 -9 -8 -6 -23 8 -14 13 -36 22 -55 22
-18 0 -32 5 -32 10 0 26 -42 5 -84 -42 -47 -53 -55 -75 -35 -95 18 -18 2 -75
-32 -122 -16 -23 -34 -53 -39 -67 -14 -36 -178 -252 -221 -291 -21 -19 -60
-51 -86 -71 -26 -20 -50 -39 -53 -43 -3 -4 -39 -25 -80 -45 -52 -26 -93 -39
-132 -42 -51 -4 -64 0 -137 37 -102 52 -182 103 -232 148 -68 62 -181 212
-190 251 -4 20 -17 81 -29 136 -18 84 -20 107 -11 159 6 33 9 63 7 66 -3 4 -1
146 4 316 4 171 4 314 1 318 -4 4 -15 5 -23 2 -18 -7 -42 -164 -32 -202 4 -13
2 -23 -4 -23 -11 0 -62 56 -62 68 0 4 9 53 19 108 15 79 27 114 56 158 20 32
34 64 31 72 -11 29 -38 12 -76 -48z m1410 -854 c6 -14 19 -28 30 -31 12 -3 19
-13 18 -27 0 -11 3 -29 7 -39 5 -13 -3 -27 -31 -54 -37 -34 -101 -69 -111 -60
-2 3 7 21 21 42 29 43 41 92 33 139 -3 19 0 39 6 45 15 15 16 15 27 -15z m101
-294 c11 -36 37 -94 59 -130 79 -130 89 -156 99 -239 14 -128 -1 -225 -49
-316 -22 -42 -40 -83 -40 -91 0 -29 -30 -25 -107 16 -69 36 -86 41 -134 38
-46 -3 -54 -6 -54 -23 0 -17 6 -19 35 -17 26 3 60 -8 133 -45 l99 -48 -8 -45
c-5 -25 -8 -76 -8 -115 0 -90 28 -150 125 -265 76 -91 116 -157 102 -171 -4
-4 -50 -17 -102 -29 -51 -11 -119 -30 -150 -41 -204 -75 -293 -101 -370 -110
-102 -12 -160 -8 -348 28 l-141 27 -4 160 c-3 180 -8 195 -99 315 -22 29 -38
55 -35 58 15 15 -21 44 -81 64 -111 36 -145 88 -105 154 51 83 144 133 102 55
-13 -24 -3 -50 20 -50 13 0 24 15 38 53 34 91 41 120 53 220 10 84 14 97 28
91 32 -14 122 -16 168 -5 64 16 155 63 208 107 25 20 45 34 45 31 0 -2 -10
-26 -22 -53 -20 -43 -23 -69 -26 -221 -4 -167 -3 -174 21 -227 26 -56 51 -72
63 -41 4 9 -4 39 -16 67 -21 48 -22 64 -18 203 4 145 5 152 36 213 25 51 29
67 20 81 -9 15 -4 24 31 57 24 21 56 57 72 81 19 27 37 43 51 43 28 0 88 38
88 57 0 8 -9 17 -20 20 -23 6 -24 13 -8 47 10 22 16 25 47 21 29 -4 47 2 96
34 71 45 75 43 106 -59z m-1363 -122 c38 -51 85 -107 104 -124 55 -52 163
-130 207 -150 33 -14 41 -23 41 -43 0 -32 -27 -222 -32 -225 -1 -2 -28 -11
-58 -22 -47 -16 -62 -28 -100 -80 -25 -33 -50 -69 -55 -79 -9 -15 -14 -10 -39
35 -31 56 -32 69 -26 235 4 106 2 116 -55 265 -29 75 -38 112 -61 248 -3 17
-3 32 -1 32 3 0 36 -42 75 -92z m1655 -1446 c9 -30 23 -85 29 -123 11 -62 10
-79 -9 -164 -29 -126 -88 -250 -140 -295 -22 -19 -43 -43 -46 -54 -5 -13 -13
-17 -30 -11 -12 3 -53 10 -92 15 -74 9 -90 13 -195 53 -36 14 -114 44 -175 66
-60 22 -146 59 -190 80 -44 22 -109 54 -145 70 -124 57 -180 143 -165 253 8
55 9 55 102 33 96 -22 288 -38 383 -30 119 9 166 21 315 76 121 46 291 90 325
86 9 -1 23 -25 33 -55z"/>
<path d="M3935 3120 c-10 -16 3 -29 54 -54 26 -14 64 -43 85 -66 34 -38 37
-46 31 -78 -9 -46 -61 -149 -94 -185 -38 -42 -106 -57 -252 -57 -69 0 -141 -3
-159 -6 -32 -7 -50 -29 -34 -43 5 -5 90 -5 189 -2 164 7 185 9 235 33 49 22
61 34 98 95 49 81 62 119 62 183 0 66 -30 104 -125 160 -52 31 -79 37 -90 20z"/>
<path d="M4498 4913 c-36 -12 -48 -21 -48 -36 0 -18 5 -19 47 -13 52 7 96 31
90 49 -6 18 -37 18 -89 0z"/>
<path d="M4394 4827 c-3 -8 9 -36 25 -63 54 -84 71 -144 71 -248 0 -72 3 -95
14 -99 29 -11 41 23 41 117 -1 102 -20 163 -77 251 -34 51 -64 68 -74 42z"/>
<path d="M3509 4663 c-25 -27 -50 -57 -56 -68 -15 -27 -23 -16 -31 42 -6 41
-11 49 -31 51 -24 4 -24 4 -17 -68 16 -177 60 -225 94 -105 7 24 34 64 67 100
31 33 54 67 53 75 -6 30 -36 20 -79 -27z"/>
<path d="M3189 4637 c-133 -96 -188 -167 -142 -184 12 -5 24 4 42 27 35 45 64
71 147 128 46 31 69 54 69 67 0 35 -28 26 -116 -38z"/>
<path d="M3983 4614 c-9 -24 71 -168 96 -172 38 -6 33 25 -15 107 -46 79 -68
97 -81 65z"/>
<path d="M3643 4603 c-19 -7 -16 -28 11 -81 13 -26 26 -65 30 -87 4 -22 9 -48
12 -57 6 -20 40 -24 46 -6 8 22 -13 112 -39 170 -25 57 -37 69 -60 61z"/>
<path d="M3901 4520 c-45 -75 -50 -140 -9 -125 20 8 72 121 64 141 -9 23 -35
16 -55 -16z"/>
<path d="M4642 4467 c-6 -7 -9 -22 -7 -33 15 -75 15 -75 38 -72 27 4 31 24 17
77 -11 42 -29 52 -48 28z"/>
<path d="M3205 4401 c-41 -5 -50 -9 -50 -26 0 -19 6 -20 104 -18 109 2 134 11
111 38 -13 16 -66 18 -165 6z"/>
<path d="M4192 4374 c4 -21 22 -23 26 -1 2 10 -3 17 -13 17 -10 0 -15 -6 -13
-16z"/>
<path d="M4162 4297 c-5 -7 -15 -41 -22 -77 -6 -36 -19 -77 -27 -91 -9 -15
-13 -34 -10 -44 10 -24 41 -14 45 15 2 14 8 30 12 35 11 14 40 115 40 141 0
25 -24 39 -38 21z"/>
<path d="M3823 4284 c-10 -26 12 -36 96 -41 78 -6 81 -5 81 16 0 26 -5 28 -98
35 -59 4 -74 2 -79 -10z"/>
<path d="M3542 4238 c-7 -7 -12 -40 -12 -80 0 -45 -7 -89 -21 -126 -35 -96
-50 -163 -44 -191 9 -40 49 -86 68 -78 21 8 22 40 2 57 -23 19 -18 87 11 155
53 128 50 317 -4 263z"/>
<path d="M3170 4119 c0 -21 91 -52 138 -46 50 5 83 30 65 48 -8 8 -21 8 -47
-2 -29 -10 -43 -11 -69 -1 -41 15 -87 16 -87 1z"/>
<path d="M3940 4059 c-33 -19 -43 -19 -115 -7 -30 5 -30 -26 0 -40 39 -18 86
-14 135 11 44 22 59 50 30 54 -8 1 -31 -7 -50 -18z"/>
<path d="M3460 3590 c0 -19 5 -21 58 -18 43 2 57 7 57 18 0 11 -14 16 -57 18
-53 3 -58 1 -58 -18z"/>
<path d="M5320 2440 c0 -12 15 -29 39 -44 22 -14 43 -36 47 -48 4 -13 8 -83 8
-155 1 -105 5 -136 17 -148 8 -9 22 -13 30 -10 13 5 14 30 11 158 -2 84 -9
163 -16 177 -14 30 -91 90 -117 90 -12 0 -19 -7 -19 -20z"/>
<path d="M2064 2257 c-36 -88 -28 -269 11 -237 9 8 13 37 13 93 1 45 6 95 11
110 27 70 -6 102 -35 34z"/>
<path d="M2465 1430 c-15 -25 17 -40 85 -40 88 0 169 -16 200 -39 14 -10 49
-47 78 -82 29 -35 62 -74 72 -87 11 -13 24 -21 30 -17 44 27 -81 190 -181 234
-76 34 -270 54 -284 31z"/>
<path d="M2947 1363 c-17 -16 -4 -41 31 -60 51 -29 79 -61 89 -103 7 -25 15
-35 28 -35 27 0 30 29 10 82 -14 36 -29 53 -78 84 -63 41 -69 43 -80 32z"/>
<path d="M4295 1038 c-29 -14 -86 -88 -83 -106 6 -30 29 -23 70 23 l43 47 85
-4 c79 -3 85 -2 85 17 0 12 -9 22 -25 26 -38 11 -152 9 -175 -3z"/>
</g>
</svg>
