<svg width="244" height="244" viewBox="0 0 244 244" fill="none" xmlns="http://www.w3.org/2000/svg">
<circle cx="122" cy="122" r="122" fill="white"/>
<path d="M82.5005 93.928C82.1805 93.928 82.0205 93.64 82.0205 93.064C82.0205 92.936 82.0205 92.744 82.0205 92.488C82.0845 92.296 82.1485 92.072 82.2125 91.816L86.3405 81.448L91.2365 69.352C90.4685 69.288 89.3485 69.32 87.8765 69.448C86.4045 69.512 85.1565 69.64 84.1325 69.832C83.7485 69.896 83.4285 69.96 83.1725 70.024C82.9805 70.024 82.8205 70.024 82.6925 70.024C82.1805 70.024 81.8285 69.8 81.6365 69.352C81.7005 68.968 82.0525 68.616 82.6925 68.296C83.0125 68.168 83.3965 68.072 83.8445 68.008C84.2925 67.88 84.8365 67.752 85.4765 67.624C86.1805 67.496 86.7885 67.4 87.3005 67.336C87.8765 67.272 88.2925 67.208 88.5485 67.144C88.8685 67.08 89.1885 67.016 89.5085 66.952C89.8285 66.888 90.2125 66.824 90.6605 66.76C91.0445 66.696 91.4605 66.632 91.9085 66.568C92.3565 66.504 92.8365 66.408 93.3485 66.28C93.8605 65.576 94.6285 64.328 95.6525 62.536C96.6765 60.744 97.9885 58.376 99.5885 55.432C100.869 53.064 101.893 51.208 102.661 49.864C103.493 48.456 104.069 47.528 104.389 47.08C104.965 46.312 105.637 45.928 106.405 45.928C106.789 45.928 106.981 46.088 106.981 46.408C106.981 46.472 106.821 46.888 106.501 47.656C106.117 48.296 105.477 49.48 104.581 51.208C103.685 52.936 102.725 54.824 101.701 56.872C100.677 58.92 99.7485 60.84 98.9165 62.632C98.0845 64.424 97.5085 65.736 97.1885 66.568C97.5085 66.504 97.8605 66.472 98.2445 66.472C98.6925 66.472 99.2365 66.472 99.8765 66.472C100.581 66.472 101.221 66.504 101.797 66.568C102.437 66.568 102.981 66.6 103.429 66.664C104.325 66.856 104.773 67.112 104.773 67.432C104.773 67.56 104.485 67.784 103.909 68.104C103.589 68.232 102.981 68.36 102.085 68.488C101.189 68.616 100.005 68.744 98.5325 68.872C98.1485 68.872 97.7325 68.904 97.2845 68.968C96.8365 68.968 96.3565 69 95.8445 69.064C93.9245 72.2 91.3005 77.416 87.9725 84.712C86.7565 87.144 85.8285 89.032 85.1885 90.376C84.5485 91.72 84.1645 92.52 84.0365 92.776C83.4605 93.544 82.9485 93.928 82.5005 93.928ZM107.554 63.976C106.722 63.976 106.306 63.784 106.306 63.4C106.306 63.08 106.53 62.632 106.978 62.056C107.49 61.416 108.066 60.872 108.706 60.424C110.114 59.528 111.202 58.76 111.97 58.12C112.802 57.48 113.794 56.392 114.946 54.856C115.01 54.984 115.042 55.24 115.042 55.624C115.042 56.456 114.69 57.48 113.986 58.696C113.346 59.848 112.61 60.904 111.778 61.864C110.946 62.824 110.21 63.432 109.57 63.688C108.994 63.88 108.322 63.976 107.554 63.976ZM99.0095 87.496C98.4975 87.496 98.0175 87.304 97.5695 86.92C97.1215 86.536 96.8975 86.024 96.8975 85.384C96.8975 84.04 97.8255 81.576 99.6815 77.992L100.738 75.88C100.866 75.752 101.026 75.432 101.218 74.92C101.474 74.408 101.826 73.736 102.273 72.904C102.722 72.008 103.074 71.208 103.33 70.504C103.586 69.8 103.778 69.128 103.906 68.488C103.906 68.424 104.034 68.296 104.29 68.104C104.546 67.912 104.802 67.752 105.058 67.624L105.634 67.528C106.146 67.528 106.562 67.624 106.882 67.816C107.266 68.008 107.394 68.264 107.266 68.584C106.818 69.544 106.434 70.376 106.114 71.08C105.794 71.784 105.538 72.392 105.346 72.904H105.25C104.546 74.504 103.938 76.04 103.426 77.512C102.978 78.92 102.786 80.264 102.85 81.544L102.946 84.136C102.882 84.776 102.658 85.32 102.273 85.768C102.018 85.96 101.666 86.184 101.218 86.44C100.77 86.76 100.194 87.08 99.4895 87.4C99.4255 87.464 99.2655 87.496 99.0095 87.496ZM108.646 86.536C107.494 86.536 106.918 86.088 106.918 85.192C106.918 84.616 107.11 83.88 107.494 82.984C107.942 82.088 108.39 81.224 108.838 80.392C110.054 78.216 111.174 76.104 112.198 74.056C113.222 72.008 114.214 69.832 115.174 67.528C115.622 66.504 116.294 65.992 117.19 65.992C118.15 65.992 118.438 66.568 118.054 67.72C117.67 68.68 117.286 69.544 116.902 70.312C115.11 73.96 114.214 76.424 114.214 77.704C114.214 78.28 114.406 78.632 114.79 78.76C115.686 78.056 116.358 77.544 116.806 77.224C117.254 76.84 117.51 76.616 117.574 76.552C118.47 75.848 119.462 75.048 120.549 74.152C121.702 73.192 122.95 72.104 124.294 70.888C126.406 68.968 128.166 68.008 129.574 68.008C131.302 68.008 132.038 69.576 131.781 72.712C131.718 73.928 131.718 75.112 131.781 76.264C131.846 76.52 131.878 76.904 131.878 77.416C131.878 77.864 131.878 78.408 131.878 79.048C131.878 79.688 132.262 80.008 133.03 80.008C133.926 80.008 134.758 79.752 135.526 79.24L137.638 77.8L139.75 76.456C139.878 76.392 140.102 76.36 140.422 76.36C140.806 76.36 140.806 76.648 140.422 77.224C136.39 82.216 133.062 84.712 130.438 84.712C129.926 84.712 129.414 84.616 128.902 84.424C128.454 84.232 128.134 83.688 127.942 82.792C127.75 81.832 127.622 80.808 127.558 79.72C127.558 78.632 127.558 77.8 127.558 77.224L127.654 74.056C127.654 72.712 127.302 72.04 126.598 72.04C124.934 72.04 120.838 75.464 114.31 82.312C113.798 82.952 112.998 83.816 111.91 84.904C110.822 85.992 109.734 86.536 108.646 86.536ZM141.179 104.68C139.771 104.68 138.619 104.04 137.723 102.76C136.827 101.48 136.379 99.976 136.379 98.248C136.379 97.288 136.539 96.424 136.859 95.656C137.371 94.568 137.787 94.024 138.107 94.024C138.363 94.024 138.491 94.216 138.491 94.6C138.491 94.92 138.395 95.336 138.203 95.848C138.139 96.04 138.107 96.2 138.107 96.328C138.043 96.52 138.011 96.68 138.011 96.808C138.011 97.96 138.331 99.144 138.971 100.36C139.675 101.576 140.539 102.184 141.563 102.184L142.331 101.992C143.867 101.608 145.307 100.744 146.651 99.4C148.059 98.12 149.435 96.52 150.779 94.6C152.571 91.976 154.171 89.128 155.579 86.056C156.987 83.048 158.203 80.04 159.227 77.032C160.251 74.024 161.019 71.304 161.531 68.872C161.531 68.552 161.403 68.392 161.147 68.392C160.699 68.392 159.995 68.904 159.035 69.928C158.267 70.76 157.275 71.912 156.059 73.384C154.843 74.856 153.339 76.616 151.547 78.664L150.011 80.488C148.987 81.704 147.931 82.6 146.843 83.176C145.819 83.688 144.859 83.944 143.963 83.944C143.195 83.944 142.555 83.784 142.043 83.464C141.403 83.016 141.083 82.216 141.083 81.064C141.083 79.208 141.947 76.136 143.675 71.848L144.923 68.776C145.563 67.304 146.107 65.96 146.555 64.744C147.067 63.528 147.547 62.408 147.995 61.384C148.443 60.552 148.955 60.136 149.531 60.136C150.235 60.136 150.363 60.552 149.915 61.384C147.611 66.632 146.267 70.76 145.883 73.768C145.819 73.896 145.787 74.088 145.787 74.344C145.787 74.536 145.787 74.76 145.787 75.016C145.787 76.424 146.363 77.128 147.515 77.128C148.283 77.128 149.371 76.68 150.779 75.784C152.187 74.76 153.947 73.16 156.059 70.984C158.171 68.744 160.699 65.928 163.643 62.536C164.155 62.024 164.635 61.512 165.083 61C165.531 60.488 165.947 60.008 166.331 59.56C166.587 59.304 166.811 59.176 167.003 59.176C167.195 59.176 167.291 59.464 167.291 60.04C167.291 60.616 167.195 61.352 167.003 62.248C166.811 63.08 166.715 63.592 166.715 63.784C165.947 68.456 164.539 73.48 162.491 78.856C160.379 84.168 157.691 89.096 154.427 93.64C151.227 98.184 147.643 101.608 143.675 103.912C142.843 104.424 142.011 104.68 141.179 104.68ZM98.8835 209.496C97.5395 209.304 96.6115 208.824 96.0995 208.056C95.6515 207.352 95.4275 206.36 95.4275 205.08C95.4275 204.76 95.4595 204.248 95.5235 203.544C95.6515 202.84 95.7795 201.976 95.9075 200.952V200.184C95.9075 199.288 95.7475 198.776 95.4275 198.648C95.3635 198.584 95.2035 198.552 94.9475 198.552C94.4995 198.552 93.6675 198.968 92.4515 199.8C92.3875 199.864 92.0355 200.184 91.3955 200.76C90.7555 201.272 89.8275 202.04 88.6115 203.064C85.0915 206.2 82.6915 207.608 81.4115 207.288C80.0675 206.968 79.3955 206.072 79.3955 204.6C79.3955 203.192 79.9075 201.496 80.9315 199.512C81.7635 197.72 82.7875 195.992 84.0035 194.328C85.2195 192.6 86.1795 191.48 86.8835 190.968C87.3955 190.648 87.8115 190.488 88.1315 190.488C88.4515 190.488 88.7395 190.616 88.9955 190.872C89.1235 191 89.1875 191.192 89.1875 191.448C89.1875 191.704 89.0275 191.992 88.7075 192.312C88.0675 192.952 87.4595 193.944 86.8835 195.288C86.3075 196.568 86.0195 197.72 86.0195 198.744C86.0195 198.872 86.0195 199.032 86.0195 199.224C86.0835 199.416 86.1475 199.64 86.2115 199.896C86.5315 200.088 86.8835 200.184 87.2675 200.184C88.0355 200.184 89.0915 199.8 90.4355 199.032C90.9475 198.712 91.6515 198.264 92.5475 197.688C93.4435 197.048 94.5315 196.248 95.8115 195.288C96.3235 194.904 96.8995 194.712 97.5395 194.712C98.2435 194.712 98.8195 194.968 99.2675 195.48C99.7795 195.928 100.036 196.568 100.036 197.4C100.036 197.528 100.004 197.72 99.9395 197.976C99.9395 198.168 99.9075 198.424 99.8435 198.744C99.7155 199.256 99.5875 199.736 99.4595 200.184C99.3315 200.632 99.2355 201.08 99.1715 201.528C99.1075 201.784 99.0755 202.136 99.0755 202.584C99.0755 202.968 99.0755 203.416 99.0755 203.928C99.0755 205.336 99.8115 206.04 101.284 206.04C101.924 206.04 102.564 205.944 103.204 205.752C103.908 205.496 104.42 205.208 104.74 204.888C107.812 202.2 110.82 198.712 113.764 194.424L113.668 193.272C113.604 192.632 113.732 192.024 114.052 191.448C114.372 190.808 114.788 190.168 115.3 189.528C115.492 189.272 115.748 189.144 116.068 189.144C116.388 189.144 116.676 189.304 116.932 189.624C117.252 189.88 117.412 190.232 117.412 190.68C117.412 191 117.316 191.352 117.124 191.736C116.74 192.44 116.132 193.464 115.3 194.808C114.468 196.088 113.508 197.496 112.42 199.032C111.332 200.568 110.244 202.008 109.156 203.352C108.068 204.696 107.076 205.752 106.18 206.52V206.616C105.092 207.576 103.844 208.312 102.436 208.824C101.028 209.4 99.8435 209.624 98.8835 209.496ZM131.209 209.592C131.081 209.592 130.953 209.56 130.825 209.496C130.697 209.496 130.569 209.464 130.441 209.4C129.545 208.952 128.969 208.312 128.713 207.48C128.457 206.648 128.393 205.592 128.521 204.312C128.649 203.8 128.777 202.904 128.905 201.624C129.097 200.344 129.321 199.32 129.577 198.552L124.681 203.256L121.993 205.848C120.137 207.704 118.601 208.632 117.385 208.632C116.873 208.632 116.457 208.44 116.137 208.056C115.561 207.352 115.273 206.488 115.273 205.464C115.273 204.12 115.625 202.68 116.329 201.144C117.033 199.608 117.865 198.136 118.825 196.728C119.785 195.256 120.649 194.04 121.417 193.08C123.337 190.712 125.193 188.856 126.984 187.512C128.841 186.168 130.761 185.496 132.745 185.496C133.833 185.496 134.889 185.688 135.913 186.072C137.001 186.456 137.993 187.096 138.889 187.992L138.984 188.088C138.984 188.28 138.825 188.472 138.505 188.664C138.377 188.792 138.249 188.888 138.121 188.952C138.057 189.016 137.993 189.08 137.929 189.144C137.161 189.912 136.297 191.192 135.337 192.984C134.377 194.776 133.545 196.664 132.841 198.648C132.137 200.568 131.785 202.232 131.785 203.64C131.785 204.92 132.105 205.784 132.745 206.232C133.065 206.424 133.417 206.52 133.801 206.52C134.633 206.52 135.785 206.008 137.257 204.984C137.321 204.92 137.449 204.824 137.641 204.696C137.897 204.504 138.249 204.248 138.697 203.928C139.209 203.544 139.625 203.352 139.945 203.352C140.265 203.352 140.425 203.48 140.425 203.736C140.425 204.12 140.169 204.568 139.656 205.08C139.273 205.4 138.825 205.752 138.312 206.136C137.865 206.52 137.321 206.904 136.681 207.288C135.721 207.992 134.729 208.536 133.705 208.92C132.681 209.368 131.849 209.592 131.209 209.592ZM120.361 203.448C121.705 203.448 124.201 201.464 127.849 197.496C128.809 196.408 129.673 195.384 130.441 194.424C131.209 193.4 131.913 192.408 132.553 191.448C133.705 189.592 134.089 188.312 133.705 187.608C133.513 187.224 133.129 187.032 132.553 187.032C131.849 187.032 130.889 187.416 129.673 188.184C128.457 188.888 127.209 189.816 125.929 190.968C124.713 192.12 123.593 193.272 122.569 194.424C121.865 195.32 121.161 196.568 120.457 198.168C119.753 199.768 119.401 201.08 119.401 202.104C119.401 203 119.721 203.448 120.361 203.448ZM146.088 210.456C144.68 210.456 144.104 208.728 144.36 205.272C144.488 204.504 144.744 203.288 145.128 201.624C145.576 199.96 146.12 198.136 146.76 196.152C147.4 194.104 148.008 192.28 148.584 190.68C148.968 189.592 149.64 188.568 150.6 187.608C151.624 186.648 152.456 186.168 153.096 186.168C153.48 186.168 153.672 186.424 153.672 186.936C153.672 187.64 153.288 188.728 152.52 190.2C151.56 191.992 150.792 193.528 150.216 194.808C149.64 196.024 149.16 197.272 148.776 198.552C148.456 199.768 148.104 201.272 147.72 203.064V203.928C147.72 205.976 148.168 206.616 149.064 205.848C150.728 204.504 152.456 202.936 154.248 201.144C156.04 199.288 157.736 197.432 159.336 195.576C160.936 193.72 162.216 192.088 163.176 190.68C163.816 189.656 164.552 188.888 165.384 188.376C166.28 187.8 166.664 187.704 166.536 188.088C166.472 188.664 165.928 189.72 164.904 191.256C163.944 192.792 162.728 194.52 161.256 196.44C159.848 198.296 158.376 200.088 156.84 201.816C155.368 203.544 154.056 204.888 152.904 205.848C152.456 206.296 151.784 206.872 150.888 207.576C150.056 208.344 149.192 209.016 148.296 209.592C147.4 210.168 146.664 210.456 146.088 210.456ZM170.075 208.056C168.731 208.056 167.547 207.704 166.523 207C164.859 205.72 164.027 203.8 164.027 201.24C164.027 198.68 164.923 195.96 166.715 193.08C168.507 190.2 171.227 187.544 174.875 185.112C175.515 184.664 176.379 184.44 177.467 184.44C178.875 184.44 180.123 184.824 181.211 185.592C182.363 186.36 182.811 187.352 182.555 188.568C182.107 190.552 181.115 192.312 179.579 193.848C178.107 195.384 176.347 196.76 174.299 197.976C172.315 199.128 170.267 200.248 168.155 201.336C168.091 201.528 168.027 201.72 167.963 201.912C167.963 202.104 167.963 202.296 167.963 202.488C167.963 203.384 168.251 204.184 168.827 204.888C169.467 205.528 170.331 205.848 171.419 205.848C172.251 205.848 172.955 205.72 173.531 205.464C174.555 205.08 175.387 204.728 176.027 204.408C176.731 204.088 177.531 203.608 178.427 202.968C179.323 202.328 180.539 201.368 182.075 200.088C182.779 199.576 183.195 199.32 183.323 199.32C183.707 199.32 183.835 199.608 183.707 200.184C183.067 201.208 181.947 202.328 180.347 203.544C178.811 204.76 177.083 205.816 175.163 206.712C173.307 207.608 171.611 208.056 170.075 208.056ZM168.731 198.744C169.243 198.744 170.299 198.232 171.899 197.208C173.499 196.184 175.003 195.064 176.411 193.848C178.843 191.608 180.059 189.88 180.059 188.664C180.059 188.344 179.963 188.056 179.771 187.8C179.579 187.48 179.291 187.32 178.907 187.32C177.691 187.32 175.643 188.76 172.763 191.64C170.779 193.56 169.435 195.928 168.731 198.744ZM181.138 211.032C180.114 211.032 179.218 210.936 178.45 210.744C177.746 210.552 177.394 210.296 177.394 209.976C177.394 209.464 177.906 209.176 178.93 209.112C179.89 209.048 180.53 208.952 180.85 208.824C181.426 208.696 182.098 208.6 182.866 208.536C183.57 208.408 184.146 208.312 184.594 208.248C187.666 207.352 189.202 205.976 189.202 204.12C189.202 202.84 188.53 201.208 187.186 199.224C186.354 198.008 185.938 196.664 185.938 195.192C185.938 193.4 186.482 191.64 187.57 189.912C188.722 188.184 190.13 186.68 191.794 185.4C193.522 184.056 195.25 183.16 196.978 182.712C197.746 182.52 198.546 182.424 199.378 182.424C200.722 182.424 201.682 182.744 202.258 183.384C202.642 183.768 202.834 184.6 202.834 185.88C202.834 186.84 202.674 187.832 202.354 188.856C202.034 189.816 201.586 190.616 201.01 191.256C200.69 191.576 200.434 191.736 200.242 191.736C199.922 191.736 199.762 191.288 199.762 190.392L199.858 188.472C199.922 187.96 199.954 187.512 199.954 187.128C200.018 186.744 200.05 186.424 200.05 186.168C200.05 185.08 199.826 184.44 199.378 184.248C198.866 184.12 198.514 184.056 198.322 184.056C196.978 184.056 195.538 184.664 194.002 185.88C192.466 187.096 191.218 188.504 190.258 190.104C189.874 190.68 189.682 191.384 189.682 192.216C189.682 193.24 189.938 194.456 190.45 195.864C191.026 197.208 191.442 198.2 191.698 198.84C192.338 200.248 192.818 201.464 193.138 202.488C193.522 203.512 193.714 204.408 193.714 205.176C193.714 205.56 193.682 205.848 193.618 206.04C193.938 205.912 194.706 205.72 195.922 205.464C197.01 205.208 197.938 205.08 198.706 205.08C199.154 205.08 199.378 205.176 199.378 205.368C199.378 205.432 199.186 205.656 198.802 206.04C198.61 206.232 198.002 206.552 196.978 207C196.018 207.384 194.866 207.8 193.522 208.248C192.242 208.696 190.962 209.112 189.682 209.496C188.402 209.88 187.314 210.168 186.418 210.36C184.882 210.808 183.122 211.032 181.138 211.032Z" fill="black"/>
</svg>
