<svg version="1.1" xmlns="http://www.w3.org/2000/svg" viewBox="0 0 207.90966796875 221.9189910888672" width="207.90966796875" height="221.9189910888672">
  <!-- svg-source:excalidraw -->
  
  <defs>
    <style class="style-fonts">
      @font-face {
        font-family: "Virgil";
        src: url("https://excalidraw.com/Virgil.woff2");
      }
      @font-face {
        font-family: "Cascadia";
        src: url("https://excalidraw.com/Cascadia.woff2");
      }
      @font-face {
        font-family: "Assistant";
        src: url("https://excalidraw.com/Assistant-Regular.woff2");
      }
    </style>
    
  </defs>
  <rect x="0" y="0" width="207.90966796875" height="221.9189910888672" fill="#ffffff"></rect><g stroke-linecap="round" transform="translate(10 42.4818115234375) rotate(0 93.954833984375 84.71858978271484)"><path d="M32 0 C76.67 -0.58, 122.2 -0.03, 155.91 0 M32 0 C67.9 -1.49, 103.74 0, 155.91 0 M155.91 0 C178.77 0.07, 188.48 9.9, 187.91 32 M155.91 0 C175.79 -0.63, 187.52 10.14, 187.91 32 M187.91 32 C188.12 70.19, 185.78 108.34, 187.91 137.44 M187.91 32 C186.86 70.56, 187.14 110.1, 187.91 137.44 M187.91 137.44 C189.44 159.64, 177.37 170.59, 155.91 169.44 M187.91 137.44 C188.85 156.53, 178.68 171.12, 155.91 169.44 M155.91 169.44 C114.11 169.08, 74.75 168.66, 32 169.44 M155.91 169.44 C110.06 170.09, 62.92 169.58, 32 169.44 M32 169.44 C9.01 171.24, -1.16 160.59, 0 137.44 M32 169.44 C9.31 167.85, 0.45 160.78, 0 137.44 M0 137.44 C2.36 104.11, 0.37 66.2, 0 32 M0 137.44 C-0.12 114.29, -0.62 91.57, 0 32 M0 32 C1.3 12.53, 11.45 -0.14, 32 0 M0 32 C0.42 10.21, 9.59 0.96, 32 0" stroke="#1e1e1e" stroke-width="2" fill="none"></path></g><g transform="translate(91.53924560546875 10) rotate(0 17.578125 12)"><text x="0" y="19.3125" font-family="Cascadia, Segoe UI Emoji" font-size="20px" fill="#1e1e1e" text-anchor="start" style="white-space: pre;" direction="ltr" dominant-baseline="alphabetic">ECS</text></g><g stroke-linecap="round" transform="translate(32.34234619140625 131.8671112060547) rotate(0 74.52548217773438 32.50958251953125)"><path d="M16.25 0 C48.36 -0.56, 82.61 -0.84, 132.8 0 M16.25 0 C58.43 -1.04, 98.17 -0.48, 132.8 0 M132.8 0 C142.42 0.93, 149.28 6.9, 149.05 16.25 M132.8 0 C141.89 0.55, 150.63 4.13, 149.05 16.25 M149.05 16.25 C151.09 24.37, 149.56 28.64, 149.05 48.76 M149.05 16.25 C149.3 25.49, 148.25 34.3, 149.05 48.76 M149.05 48.76 C148.09 60.11, 145.13 63.22, 132.8 65.02 M149.05 48.76 C150.5 59.3, 143.65 66.9, 132.8 65.02 M132.8 65.02 C93.78 64.87, 56.65 66.34, 16.25 65.02 M132.8 65.02 C108.79 65.8, 82.26 64.62, 16.25 65.02 M16.25 65.02 C6.02 65.71, 1.43 58.95, 0 48.76 M16.25 65.02 C7.22 62.95, -0.95 59.27, 0 48.76 M0 48.76 C-0.55 40.64, -2.13 30.67, 0 16.25 M0 48.76 C0.11 37.89, -0.28 25.88, 0 16.25 M0 16.25 C1.98 4.06, 3.85 -1.66, 16.25 0 M0 16.25 C-0.05 3.45, 7.39 -0.71, 16.25 0" stroke="#1e1e1e" stroke-width="2" fill="none"></path></g><g stroke-linecap="round" transform="translate(33.233734130859375 53.55760192871094) rotate(0 74.52548217773438 32.50958251953125)"><path d="M16.25 0 C48.4 1.33, 78.74 1.26, 132.8 0 M16.25 0 C62.16 1.25, 107.29 -0.42, 132.8 0 M132.8 0 C143.3 -0.42, 149.59 4.12, 149.05 16.25 M132.8 0 C144.44 -2, 149.3 5.83, 149.05 16.25 M149.05 16.25 C148.43 26.28, 147.7 39.34, 149.05 48.76 M149.05 16.25 C148.22 27.3, 149.3 39.73, 149.05 48.76 M149.05 48.76 C148.57 61.5, 145.5 64.62, 132.8 65.02 M149.05 48.76 C149.28 60.55, 145.52 63.46, 132.8 65.02 M132.8 65.02 C97.03 63.65, 59.56 62.05, 16.25 65.02 M132.8 65.02 C107.26 64.58, 80.8 65.43, 16.25 65.02 M16.25 65.02 C4.53 63.84, 0.61 58.43, 0 48.76 M16.25 65.02 C4.14 64.24, 0.67 58.43, 0 48.76 M0 48.76 C0.51 39.63, 0.49 35.74, 0 16.25 M0 48.76 C-0.42 39.54, 0.76 29.01, 0 16.25 M0 16.25 C-0.87 4.92, 6.17 1.55, 16.25 0 M0 16.25 C-1.31 6.79, 3.19 -0.89, 16.25 0" stroke="#1e1e1e" stroke-width="2" fill="none"></path></g><g transform="translate(90.18109130859375 74.06718444824219) rotate(0 17.578125 12)"><text x="17.578125" y="19.3125" font-family="Cascadia, Segoe UI Emoji" font-size="20px" fill="#1e1e1e" text-anchor="middle" style="white-space: pre;" direction="ltr" dominant-baseline="alphabetic">foo</text></g><g transform="translate(70.04403686523438 153.51438903808594) rotate(0 35.15625 12)"><text x="0" y="19.3125" font-family="Cascadia, Segoe UI Emoji" font-size="20px" fill="#1e1e1e" text-anchor="start" style="white-space: pre;" direction="ltr" dominant-baseline="alphabetic">global</text></g></svg>